{
	"asset":{
		"generator":"Khronos glTF Blender I/O v5.0.21",
		"version":"2.0"
	},
	"extensionsUsed":[
		"KHR_materials_emissive_strength"
	],
	"scene":0,
	"scenes":[
		{
			"name":"Scene",
			"nodes":[
				0
			]
		}
	],
	"nodes":[
		{
			"mesh":0,
			"name":"lights.005",
			"rotation":[
				-0.7071068286895752,
				0,
				-0.7071068286895752,
				1.1520233300643667e-07
			],
			"scale":[
				17.899364471435547,
				17.899364471435547,
				17.899364471435547
			]
		}
	],
	"materials":[
		{
			"doubleSided":true,
			"emissiveFactor":[
				1,
				0.8908777236938477,
				0.3550713360309601
			],
			"extensions":{
				"KHR_materials_emissive_strength":{
					"emissiveStrength":4.559999942779541
				}
			},
			"name":"emission_light_01",
			"pbrMetallicRoughness":{
				"baseColorFactor":[
					0,
					0,
					0,
					1
				]
			}
		}
	],
	"meshes":[
		{
			"name":"Mesh",
			"primitives":[
				{
					"attributes":{
						"POSITION":0,
						"NORMAL":1,
						"TEXCOORD_0":2
					},
					"indices":3,
					"material":0
				}
			]
		}
	],
	"accessors":[
		{
			"bufferView":0,
			"componentType":5126,
			"count":65,
			"max":[
				0.9936952590942383,
				0,
				0.9936952590942383
			],
			"min":[
				-0.9936952590942383,
				0,
				-0.9936952590942383
			],
			"type":"VEC3"
		},
		{
			"bufferView":1,
			"componentType":5126,
			"count":65,
			"type":"VEC3"
		},
		{
			"bufferView":2,
			"componentType":5126,
			"count":65,
			"type":"VEC2"
		},
		{
			"bufferView":3,
			"componentType":5123,
			"count":192,
			"type":"SCALAR"
		}
	],
	"bufferViews":[
		{
			"buffer":0,
			"byteLength":780,
			"byteOffset":0,
			"target":34962
		},
		{
			"buffer":0,
			"byteLength":780,
			"byteOffset":780,
			"target":34962
		},
		{
			"buffer":0,
			"byteLength":520,
			"byteOffset":1560,
			"target":34962
		},
		{
			"buffer":0,
			"byteLength":384,
			"byteOffset":2080,
			"target":34963
		}
	],
	"buffers":[
		{
			"byteLength":2464,
			"uri":"lights_circle.bin"
		}
	]
}
