{
	"asset":{
		"generator":"Khronos glTF Blender I/O v5.0.21",
		"version":"2.0"
	},
	"extensionsUsed":[
		"KHR_materials_specular"
	],
	"scene":0,
	"scenes":[
		{
			"name":"Scene",
			"nodes":[
				0
			]
		}
	],
	"nodes":[
		{
			"mesh":0,
			"name":"CGGJ's logo",
			"scale":[
				10,
				10,
				10
			],
			"translation":[
				-0.0036309899296611547,
				-0.02191273495554924,
				0.01696574129164219
			]
		}
	],
	"materials":[
		{
			"doubleSided":true,
			"extensions":{
				"KHR_materials_specular":{
					"specularFactor":0
				}
			},
			"name":"brown",
			"pbrMetallicRoughness":{
				"baseColorFactor":[
					0.0368894562125206,
					0,
					0,
					1
				],
				"metallicFactor":0,
				"roughnessFactor":0.5
			}
		},
		{
			"doubleSided":true,
			"extensions":{
				"KHR_materials_specular":{
					"specularFactor":0
				}
			},
			"name":"red",
			"pbrMetallicRoughness":{
				"baseColorFactor":[
					0.8796226382255554,
					0,
					0.0047769551165401936,
					1
				],
				"metallicFactor":0,
				"roughnessFactor":0.5
			}
		},
		{
			"doubleSided":true,
			"extensions":{
				"KHR_materials_specular":{
					"specularFactor":0
				}
			},
			"name":"black",
			"pbrMetallicRoughness":{
				"baseColorFactor":[
					0,
					0,
					0,
					1
				],
				"metallicFactor":0,
				"roughnessFactor":0.5
			}
		},
		{
			"doubleSided":true,
			"extensions":{
				"KHR_materials_specular":{
					"specularFactor":0
				}
			},
			"name":"white",
			"pbrMetallicRoughness":{
				"baseColorFactor":[
					0.800000011920929,
					0.800000011920929,
					0.800000011920929,
					1
				],
				"metallicFactor":0,
				"roughnessFactor":0.5
			}
		}
	],
	"meshes":[
		{
			"name":"CGGJ's logo",
			"primitives":[
				{
					"attributes":{
						"POSITION":0,
						"NORMAL":1,
						"TEXCOORD_0":2
					},
					"indices":3,
					"material":0
				},
				{
					"attributes":{
						"POSITION":4,
						"NORMAL":5,
						"TEXCOORD_0":6
					},
					"indices":7,
					"material":1
				},
				{
					"attributes":{
						"POSITION":8,
						"NORMAL":9,
						"TEXCOORD_0":10
					},
					"indices":11,
					"material":2
				},
				{
					"attributes":{
						"POSITION":12,
						"NORMAL":13,
						"TEXCOORD_0":14
					},
					"indices":15,
					"material":3
				}
			]
		}
	],
	"accessors":[
		{
			"bufferView":0,
			"componentType":5126,
			"count":2727,
			"max":[
				0.09454581886529922,
				0.03191273286938667,
				0.07381527125835419
			],
			"min":[
				-0.08466892689466476,
				-0.03191295266151428,
				-0.10867557674646378
			],
			"type":"VEC3"
		},
		{
			"bufferView":1,
			"componentType":5126,
			"count":2727,
			"type":"VEC3"
		},
		{
			"bufferView":2,
			"componentType":5126,
			"count":2727,
			"type":"VEC2"
		},
		{
			"bufferView":3,
			"componentType":5123,
			"count":7452,
			"type":"SCALAR"
		},
		{
			"bufferView":4,
			"componentType":5126,
			"count":3416,
			"max":[
				0.10363729298114777,
				0.03399704769253731,
				0.08289335668087006
			],
			"min":[
				-0.09349890798330307,
				-0.03399726375937462,
				-0.10536163300275803
			],
			"type":"VEC3"
		},
		{
			"bufferView":5,
			"componentType":5126,
			"count":3416,
			"type":"VEC3"
		},
		{
			"bufferView":6,
			"componentType":5126,
			"count":3416,
			"type":"VEC2"
		},
		{
			"bufferView":7,
			"componentType":5123,
			"count":8748,
			"type":"SCALAR"
		},
		{
			"bufferView":8,
			"componentType":5126,
			"count":96,
			"max":[
				0.06703749299049377,
				0.03274865448474884,
				0.013462752103805542
			],
			"min":[
				-0.05980003625154495,
				-0.03274887800216675,
				0.0019972268491983414
			],
			"type":"VEC3"
		},
		{
			"bufferView":9,
			"componentType":5126,
			"count":96,
			"type":"VEC3"
		},
		{
			"bufferView":10,
			"componentType":5126,
			"count":96,
			"type":"VEC2"
		},
		{
			"bufferView":11,
			"componentType":5123,
			"count":144,
			"type":"SCALAR"
		},
		{
			"bufferView":12,
			"componentType":5126,
			"count":168,
			"max":[
				0.029268501326441765,
				0.03191273286938667,
				0.00289108045399189
			],
			"min":[
				-0.014974309131503105,
				-0.03191295266151428,
				-0.02821601927280426
			],
			"type":"VEC3"
		},
		{
			"bufferView":13,
			"componentType":5126,
			"count":168,
			"type":"VEC3"
		},
		{
			"bufferView":14,
			"componentType":5126,
			"count":168,
			"type":"VEC2"
		},
		{
			"bufferView":15,
			"componentType":5123,
			"count":420,
			"type":"SCALAR"
		}
	],
	"bufferViews":[
		{
			"buffer":0,
			"byteLength":32724,
			"byteOffset":0,
			"target":34962
		},
		{
			"buffer":0,
			"byteLength":32724,
			"byteOffset":32724,
			"target":34962
		},
		{
			"buffer":0,
			"byteLength":21816,
			"byteOffset":65448,
			"target":34962
		},
		{
			"buffer":0,
			"byteLength":14904,
			"byteOffset":87264,
			"target":34963
		},
		{
			"buffer":0,
			"byteLength":40992,
			"byteOffset":102168,
			"target":34962
		},
		{
			"buffer":0,
			"byteLength":40992,
			"byteOffset":143160,
			"target":34962
		},
		{
			"buffer":0,
			"byteLength":27328,
			"byteOffset":184152,
			"target":34962
		},
		{
			"buffer":0,
			"byteLength":17496,
			"byteOffset":211480,
			"target":34963
		},
		{
			"buffer":0,
			"byteLength":1152,
			"byteOffset":228976,
			"target":34962
		},
		{
			"buffer":0,
			"byteLength":1152,
			"byteOffset":230128,
			"target":34962
		},
		{
			"buffer":0,
			"byteLength":768,
			"byteOffset":231280,
			"target":34962
		},
		{
			"buffer":0,
			"byteLength":288,
			"byteOffset":232048,
			"target":34963
		},
		{
			"buffer":0,
			"byteLength":2016,
			"byteOffset":232336,
			"target":34962
		},
		{
			"buffer":0,
			"byteLength":2016,
			"byteOffset":234352,
			"target":34962
		},
		{
			"buffer":0,
			"byteLength":1344,
			"byteOffset":236368,
			"target":34962
		},
		{
			"buffer":0,
			"byteLength":840,
			"byteOffset":237712,
			"target":34963
		}
	],
	"buffers":[
		{
			"byteLength":238552,
			"uri":"cggj_logo.bin"
		}
	]
}
