{
	"asset":{
		"generator":"Khronos glTF Blender I/O v4.5.49",
		"version":"2.0"
	},
	"scene":0,
	"scenes":[
		{
			"name":"Scene",
			"nodes":[
				0
			]
		}
	],
	"nodes":[
		{
			"mesh":0,
			"name":"floor_middle_marble",
			"translation":[
				-4.947235107421875,
				0.7817569971084595,
				-43.70371627807617
			]
		}
	],
	"materials":[
		{
			"doubleSided":true,
			"name":"Verde Alpi Marble",
			"pbrMetallicRoughness":{
				"baseColorTexture":{
					"index":0
				},
				"metallicFactor":0,
				"metallicRoughnessTexture":{
					"index":1
				}
			}
		}
	],
	"meshes":[
		{
			"name":"floor_middle_marble",
			"primitives":[
				{
					"attributes":{
						"POSITION":0,
						"NORMAL":1,
						"TEXCOORD_0":2,
						"TEXCOORD_1":3
					},
					"indices":4,
					"material":0
				}
			]
		}
	],
	"textures":[
		{
			"sampler":0,
			"source":0
		},
		{
			"sampler":0,
			"source":1
		}
	],
	"images":[
		{
			"mimeType":"image/jpeg",
			"name":"wlhkfhqv_2K_Albedo",
			"uri":"wlhkfhqv_2K_Albedo.jpg"
		},
		{
			"mimeType":"image/png",
			"name":"wlhkfhqv_2K_Roughness",
			"uri":"wlhkfhqv_2K_Roughness.png"
		}
	],
	"accessors":[
		{
			"bufferView":0,
			"componentType":5126,
			"count":221,
			"max":[
				294.4582214355469,
				0,
				5095.181640625
			],
			"min":[
				-294.4582214355469,
				-5.4234619140625,
				-1643.828369140625
			],
			"type":"VEC3"
		},
		{
			"bufferView":1,
			"componentType":5126,
			"count":221,
			"type":"VEC3"
		},
		{
			"bufferView":2,
			"componentType":5126,
			"count":221,
			"type":"VEC2"
		},
		{
			"bufferView":3,
			"componentType":5126,
			"count":221,
			"type":"VEC2"
		},
		{
			"bufferView":4,
			"componentType":5123,
			"count":345,
			"type":"SCALAR"
		}
	],
	"bufferViews":[
		{
			"buffer":0,
			"byteLength":2652,
			"byteOffset":0,
			"target":34962
		},
		{
			"buffer":0,
			"byteLength":2652,
			"byteOffset":2652,
			"target":34962
		},
		{
			"buffer":0,
			"byteLength":1768,
			"byteOffset":5304,
			"target":34962
		},
		{
			"buffer":0,
			"byteLength":1768,
			"byteOffset":7072,
			"target":34962
		},
		{
			"buffer":0,
			"byteLength":690,
			"byteOffset":8840,
			"target":34963
		}
	],
	"samplers":[
		{
			"magFilter":9729,
			"minFilter":9987
		}
	],
	"buffers":[
		{
			"byteLength":9532,
			"uri":"floor_middle_marble.bin"
		}
	]
}
