{
	"asset":{
		"generator":"Khronos glTF Blender I/O v4.5.49",
		"version":"2.0"
	},
	"scene":0,
	"scenes":[
		{
			"name":"Scene",
			"nodes":[
				0
			]
		}
	],
	"nodes":[
		{
			"mesh":0,
			"name":"gallery_base",
			"scale":[
				0.891581654548645,
				1,
				1
			],
			"translation":[
				5.580772399902344,
				414.9808349609375,
				710.7682495117188
			]
		}
	],
	"meshes":[
		{
			"name":"gallery_base",
			"primitives":[
				{
					"attributes":{
						"POSITION":0,
						"NORMAL":1,
						"TEXCOORD_0":2,
						"TEXCOORD_1":3,
						"TEXCOORD_2":4
					},
					"indices":5
				}
			]
		}
	],
	"accessors":[
		{
			"bufferView":0,
			"componentType":5126,
			"count":9108,
			"max":[
				1225.8133544921875,
				460.4208984375,
				4357.59814453125
			],
			"min":[
				-1248.1651611328125,
				-416.1379699707031,
				-3176.576904296875
			],
			"type":"VEC3"
		},
		{
			"bufferView":1,
			"componentType":5126,
			"count":9108,
			"type":"VEC3"
		},
		{
			"bufferView":2,
			"componentType":5126,
			"count":9108,
			"type":"VEC2"
		},
		{
			"bufferView":3,
			"componentType":5126,
			"count":9108,
			"type":"VEC2"
		},
		{
			"bufferView":4,
			"componentType":5126,
			"count":9108,
			"type":"VEC2"
		},
		{
			"bufferView":5,
			"componentType":5123,
			"count":19941,
			"type":"SCALAR"
		}
	],
	"bufferViews":[
		{
			"buffer":0,
			"byteLength":109296,
			"byteOffset":0,
			"target":34962
		},
		{
			"buffer":0,
			"byteLength":109296,
			"byteOffset":109296,
			"target":34962
		},
		{
			"buffer":0,
			"byteLength":72864,
			"byteOffset":218592,
			"target":34962
		},
		{
			"buffer":0,
			"byteLength":72864,
			"byteOffset":291456,
			"target":34962
		},
		{
			"buffer":0,
			"byteLength":72864,
			"byteOffset":364320,
			"target":34962
		},
		{
			"buffer":0,
			"byteLength":39882,
			"byteOffset":437184,
			"target":34963
		}
	],
	"buffers":[
		{
			"byteLength":477068,
			"uri":"gallery_base.bin"
		}
	]
}
