{
	"asset":{
		"generator":"Khronos glTF Blender I/O v4.5.49",
		"version":"2.0"
	},
	"scene":0,
	"scenes":[
		{
			"name":"Scene",
			"nodes":[
				0
			]
		}
	],
	"nodes":[
		{
			"mesh":0,
			"name":"AI44_001_handrail_001_03"
		}
	],
	"materials":[
		{
			"doubleSided":true,
			"name":"CSP Glass"
		},
		{
			"doubleSided":true,
			"name":"Dented Metal"
		}
	],
	"meshes":[
		{
			"name":"AI44_001_handrail_001_03",
			"primitives":[
				{
					"attributes":{
						"POSITION":0,
						"NORMAL":1,
						"TEXCOORD_0":2
					},
					"indices":3,
					"material":0
				},
				{
					"attributes":{
						"POSITION":4,
						"NORMAL":5,
						"TEXCOORD_0":6
					},
					"indices":7,
					"material":1
				}
			]
		}
	],
	"accessors":[
		{
			"bufferView":0,
			"componentType":5126,
			"count":960,
			"max":[
				738.2628784179688,
				87.23446655273438,
				109.9562759399414
			],
			"min":[
				-738.60888671875,
				9.31515121459961,
				-78.43518829345703
			],
			"type":"VEC3"
		},
		{
			"bufferView":1,
			"componentType":5126,
			"count":960,
			"type":"VEC3"
		},
		{
			"bufferView":2,
			"componentType":5126,
			"count":960,
			"type":"VEC2"
		},
		{
			"bufferView":3,
			"componentType":5123,
			"count":1716,
			"type":"SCALAR"
		},
		{
			"bufferView":4,
			"componentType":5126,
			"count":6688,
			"max":[
				751.5357666015625,
				97.4285888671875,
				115.28562927246094
			],
			"min":[
				-747.5941772460938,
				0.27655792236328125,
				-83.76432037353516
			],
			"type":"VEC3"
		},
		{
			"bufferView":5,
			"componentType":5126,
			"count":6688,
			"type":"VEC3"
		},
		{
			"bufferView":6,
			"componentType":5126,
			"count":6688,
			"type":"VEC2"
		},
		{
			"bufferView":7,
			"componentType":5123,
			"count":17484,
			"type":"SCALAR"
		}
	],
	"bufferViews":[
		{
			"buffer":0,
			"byteLength":11520,
			"byteOffset":0,
			"target":34962
		},
		{
			"buffer":0,
			"byteLength":11520,
			"byteOffset":11520,
			"target":34962
		},
		{
			"buffer":0,
			"byteLength":7680,
			"byteOffset":23040,
			"target":34962
		},
		{
			"buffer":0,
			"byteLength":3432,
			"byteOffset":30720,
			"target":34963
		},
		{
			"buffer":0,
			"byteLength":80256,
			"byteOffset":34152,
			"target":34962
		},
		{
			"buffer":0,
			"byteLength":80256,
			"byteOffset":114408,
			"target":34962
		},
		{
			"buffer":0,
			"byteLength":53504,
			"byteOffset":194664,
			"target":34962
		},
		{
			"buffer":0,
			"byteLength":34968,
			"byteOffset":248168,
			"target":34963
		}
	],
	"buffers":[
		{
			"byteLength":283136,
			"uri":"handrail.bin"
		}
	]
}
