{
	"asset":{
		"generator":"Khronos glTF Blender I/O v5.0.21",
		"version":"2.0"
	},
	"extensionsUsed":[
		"KHR_materials_emissive_strength"
	],
	"scene":0,
	"scenes":[
		{
			"name":"Scene",
			"nodes":[
				0
			]
		}
	],
	"nodes":[
		{
			"mesh":0,
			"name":"arcade_cabinet_01"
		}
	],
	"materials":[
		{
			"doubleSided":true,
			"emissiveFactor":[
				0.2973988652229309,
				0.9458385705947876,
				1
			],
			"extensions":{
				"KHR_materials_emissive_strength":{
					"emissiveStrength":2.7799999713897705
				}
			},
			"name":"emissive_screen.001",
			"pbrMetallicRoughness":{
				"baseColorFactor":[
					0,
					0,
					0,
					1
				]
			}
		}
	],
	"meshes":[
		{
			"name":"arcade_cabinet_01",
			"primitives":[
				{
					"attributes":{
						"POSITION":0,
						"NORMAL":1,
						"TEXCOORD_0":2
					},
					"indices":3
				},
				{
					"attributes":{
						"POSITION":4,
						"NORMAL":5,
						"TEXCOORD_0":6
					},
					"indices":7,
					"material":0
				}
			]
		}
	],
	"accessors":[
		{
			"bufferView":0,
			"componentType":5126,
			"count":10603,
			"max":[
				40.92965316772461,
				194.3551025390625,
				45.05262756347656
			],
			"min":[
				-40.19341278076172,
				-2.9360580444335938,
				-45.7510986328125
			],
			"type":"VEC3"
		},
		{
			"bufferView":1,
			"componentType":5126,
			"count":10603,
			"type":"VEC3"
		},
		{
			"bufferView":2,
			"componentType":5126,
			"count":10603,
			"type":"VEC2"
		},
		{
			"bufferView":3,
			"componentType":5123,
			"count":45840,
			"type":"SCALAR"
		},
		{
			"bufferView":4,
			"componentType":5126,
			"count":144,
			"max":[
				23.079694747924805,
				118.33011627197266,
				7.288288116455078
			],
			"min":[
				-22.8906307220459,
				104.47394561767578,
				-18.71746253967285
			],
			"type":"VEC3"
		},
		{
			"bufferView":5,
			"componentType":5126,
			"count":144,
			"type":"VEC3"
		},
		{
			"bufferView":6,
			"componentType":5126,
			"count":144,
			"type":"VEC2"
		},
		{
			"bufferView":7,
			"componentType":5123,
			"count":726,
			"type":"SCALAR"
		}
	],
	"bufferViews":[
		{
			"buffer":0,
			"byteLength":127236,
			"byteOffset":0,
			"target":34962
		},
		{
			"buffer":0,
			"byteLength":127236,
			"byteOffset":127236,
			"target":34962
		},
		{
			"buffer":0,
			"byteLength":84824,
			"byteOffset":254472,
			"target":34962
		},
		{
			"buffer":0,
			"byteLength":91680,
			"byteOffset":339296,
			"target":34963
		},
		{
			"buffer":0,
			"byteLength":1728,
			"byteOffset":430976,
			"target":34962
		},
		{
			"buffer":0,
			"byteLength":1728,
			"byteOffset":432704,
			"target":34962
		},
		{
			"buffer":0,
			"byteLength":1152,
			"byteOffset":434432,
			"target":34962
		},
		{
			"buffer":0,
			"byteLength":1452,
			"byteOffset":435584,
			"target":34963
		}
	],
	"buffers":[
		{
			"byteLength":437036,
			"uri":"arcade_cabinet_01.bin"
		}
	]
}
