{
	"asset":{
		"generator":"Khronos glTF Blender I/O v5.0.21",
		"version":"2.0"
	},
	"scene":0,
	"scenes":[
		{
			"name":"Scene",
			"nodes":[
				0
			]
		}
	],
	"nodes":[
		{
			"mesh":0,
			"name":"pedestal_01"
		}
	],
	"meshes":[
		{
			"name":"pedestal_01",
			"primitives":[
				{
					"attributes":{
						"POSITION":0,
						"NORMAL":1,
						"TEXCOORD_0":2,
						"TEXCOORD_1":3
					},
					"indices":4
				}
			]
		}
	],
	"accessors":[
		{
			"bufferView":0,
			"componentType":5126,
			"count":784,
			"max":[
				55.278099060058594,
				27.724084854125977,
				55.278099060058594
			],
			"min":[
				-55.278099060058594,
				-0.0026851892471313477,
				-55.27810287475586
			],
			"type":"VEC3"
		},
		{
			"bufferView":1,
			"componentType":5126,
			"count":784,
			"type":"VEC3"
		},
		{
			"bufferView":2,
			"componentType":5126,
			"count":784,
			"type":"VEC2"
		},
		{
			"bufferView":3,
			"componentType":5126,
			"count":784,
			"type":"VEC2"
		},
		{
			"bufferView":4,
			"componentType":5123,
			"count":1908,
			"type":"SCALAR"
		}
	],
	"bufferViews":[
		{
			"buffer":0,
			"byteLength":9408,
			"byteOffset":0,
			"target":34962
		},
		{
			"buffer":0,
			"byteLength":9408,
			"byteOffset":9408,
			"target":34962
		},
		{
			"buffer":0,
			"byteLength":6272,
			"byteOffset":18816,
			"target":34962
		},
		{
			"buffer":0,
			"byteLength":6272,
			"byteOffset":25088,
			"target":34962
		},
		{
			"buffer":0,
			"byteLength":3816,
			"byteOffset":31360,
			"target":34963
		}
	],
	"buffers":[
		{
			"byteLength":35176,
			"uri":"pedestal_01.bin"
		}
	]
}
