{
	"asset":{
		"generator":"Khronos glTF Blender I/O v4.5.49",
		"version":"2.0"
	},
	"scene":0,
	"scenes":[
		{
			"name":"Scene",
			"nodes":[
				0
			]
		}
	],
	"nodes":[
		{
			"mesh":0,
			"name":"room_01"
		}
	],
	"meshes":[
		{
			"name":"AI44_001_wall_001.003",
			"primitives":[
				{
					"attributes":{
						"POSITION":0,
						"NORMAL":1,
						"TEXCOORD_0":2,
						"TEXCOORD_1":3,
						"TEXCOORD_2":4
					},
					"indices":5
				}
			]
		}
	],
	"accessors":[
		{
			"bufferView":0,
			"componentType":5126,
			"count":158,
			"max":[
				229.9564971923828,
				170.89056396484375,
				212.8904266357422
			],
			"min":[
				-269.610107421875,
				-108.67574310302734,
				-163.7619171142578
			],
			"type":"VEC3"
		},
		{
			"bufferView":1,
			"componentType":5126,
			"count":158,
			"type":"VEC3"
		},
		{
			"bufferView":2,
			"componentType":5126,
			"count":158,
			"type":"VEC2"
		},
		{
			"bufferView":3,
			"componentType":5126,
			"count":158,
			"type":"VEC2"
		},
		{
			"bufferView":4,
			"componentType":5126,
			"count":158,
			"type":"VEC2"
		},
		{
			"bufferView":5,
			"componentType":5123,
			"count":288,
			"type":"SCALAR"
		}
	],
	"bufferViews":[
		{
			"buffer":0,
			"byteLength":1896,
			"byteOffset":0,
			"target":34962
		},
		{
			"buffer":0,
			"byteLength":1896,
			"byteOffset":1896,
			"target":34962
		},
		{
			"buffer":0,
			"byteLength":1264,
			"byteOffset":3792,
			"target":34962
		},
		{
			"buffer":0,
			"byteLength":1264,
			"byteOffset":5056,
			"target":34962
		},
		{
			"buffer":0,
			"byteLength":1264,
			"byteOffset":6320,
			"target":34962
		},
		{
			"buffer":0,
			"byteLength":576,
			"byteOffset":7584,
			"target":34963
		}
	],
	"buffers":[
		{
			"byteLength":8160,
			"uri":"room_01_default.bin"
		}
	]
}
