{
	"asset":{
		"generator":"Khronos glTF Blender I/O v5.0.21",
		"version":"2.0"
	},
	"scene":0,
	"scenes":[
		{
			"name":"Scene",
			"nodes":[
				0
			]
		}
	],
	"nodes":[
		{
			"mesh":0,
			"name":"room_02",
			"rotation":[
				0,
				-1,
				0,
				1.6292068494294654e-07
			],
			"translation":[
				0,
				110.33399963378906,
				0
			]
		}
	],
	"meshes":[
		{
			"name":"room_02",
			"primitives":[
				{
					"attributes":{
						"POSITION":0,
						"NORMAL":1,
						"TEXCOORD_0":2,
						"TEXCOORD_1":3,
						"TEXCOORD_2":4
					},
					"indices":5
				},
				{
					"attributes":{
						"POSITION":6,
						"NORMAL":7,
						"TEXCOORD_0":8,
						"TEXCOORD_1":9,
						"TEXCOORD_2":10
					},
					"indices":11
				}
			]
		}
	],
	"accessors":[
		{
			"bufferView":0,
			"componentType":5126,
			"count":215,
			"max":[
				229.9564971923828,
				543.83984375,
				212.8904266357422
			],
			"min":[
				-760.3886108398438,
				-108.67574310302734,
				-163.7619171142578
			],
			"type":"VEC3"
		},
		{
			"bufferView":1,
			"componentType":5126,
			"count":215,
			"type":"VEC3"
		},
		{
			"bufferView":2,
			"componentType":5126,
			"count":215,
			"type":"VEC2"
		},
		{
			"bufferView":3,
			"componentType":5126,
			"count":215,
			"type":"VEC2"
		},
		{
			"bufferView":4,
			"componentType":5126,
			"count":215,
			"type":"VEC2"
		},
		{
			"bufferView":5,
			"componentType":5123,
			"count":444,
			"type":"SCALAR"
		},
		{
			"bufferView":6,
			"componentType":5126,
			"count":20,
			"max":[
				229.9564971923828,
				-108.67574310302734,
				212.8904266357422
			],
			"min":[
				-758.706298828125,
				-108.67574310302734,
				-163.7617950439453
			],
			"type":"VEC3"
		},
		{
			"bufferView":7,
			"componentType":5126,
			"count":20,
			"type":"VEC3"
		},
		{
			"bufferView":8,
			"componentType":5126,
			"count":20,
			"type":"VEC2"
		},
		{
			"bufferView":9,
			"componentType":5126,
			"count":20,
			"type":"VEC2"
		},
		{
			"bufferView":10,
			"componentType":5126,
			"count":20,
			"type":"VEC2"
		},
		{
			"bufferView":11,
			"componentType":5123,
			"count":45,
			"type":"SCALAR"
		}
	],
	"bufferViews":[
		{
			"buffer":0,
			"byteLength":2580,
			"byteOffset":0,
			"target":34962
		},
		{
			"buffer":0,
			"byteLength":2580,
			"byteOffset":2580,
			"target":34962
		},
		{
			"buffer":0,
			"byteLength":1720,
			"byteOffset":5160,
			"target":34962
		},
		{
			"buffer":0,
			"byteLength":1720,
			"byteOffset":6880,
			"target":34962
		},
		{
			"buffer":0,
			"byteLength":1720,
			"byteOffset":8600,
			"target":34962
		},
		{
			"buffer":0,
			"byteLength":888,
			"byteOffset":10320,
			"target":34963
		},
		{
			"buffer":0,
			"byteLength":240,
			"byteOffset":11208,
			"target":34962
		},
		{
			"buffer":0,
			"byteLength":240,
			"byteOffset":11448,
			"target":34962
		},
		{
			"buffer":0,
			"byteLength":160,
			"byteOffset":11688,
			"target":34962
		},
		{
			"buffer":0,
			"byteLength":160,
			"byteOffset":11848,
			"target":34962
		},
		{
			"buffer":0,
			"byteLength":160,
			"byteOffset":12008,
			"target":34962
		},
		{
			"buffer":0,
			"byteLength":90,
			"byteOffset":12168,
			"target":34963
		}
	],
	"buffers":[
		{
			"byteLength":12260,
			"uri":"room_02_longer_taller.bin"
		}
	]
}
